<?xml version="1.0" standalone="no"?>
<!DOCTYPE svg PUBLIC "-//W3C//DTD SVG 20010904//EN"
 "http://www.w3.org/TR/2001/REC-SVG-20010904/DTD/svg10.dtd">
<svg version="1.0" xmlns="http://www.w3.org/2000/svg"
 width="512.000000pt" height="512.000000pt" viewBox="0 0 512.000000 512.000000"
 preserveAspectRatio="xMidYMid meet">
<metadata>
Created by potrace 1.11, written by Peter Selinger 2001-2013
</metadata>
<g transform="translate(0.000000,512.000000) scale(0.100000,-0.100000)"
fill="#000000" stroke="none">
<path d="M2428 4905 c-2 -2 -39 -6 -83 -9 -188 -16 -368 -55 -545 -117 -47
-17 -89 -32 -95 -33 -21 -6 -69 -28 -168 -75 -363 -175 -667 -435 -905 -774
-34 -48 -62 -90 -62 -94 0 -3 -6 -14 -14 -22 -36 -41 -196 -374 -196 -408 0
-8 -3 -12 -7 -10 -5 3 -9 -5 -10 -16 0 -12 -13 -60 -28 -107 -15 -47 -29 -94
-31 -105 -2 -11 -8 -38 -14 -60 -6 -22 -13 -53 -15 -70 -2 -16 -7 -41 -10 -55
-6 -25 -9 -46 -21 -145 -9 -78 -12 -427 -3 -451 4 -13 3 -26 -4 -33 -6 -6 -7
-11 -1 -11 9 0 15 -35 18 -107 0 -17 4 -29 8 -27 4 3 7 -4 6 -13 0 -19 7 -63
17 -103 4 -14 7 -36 8 -50 1 -14 6 -28 10 -31 5 -4 10 -24 10 -47 1 -22 5 -38
8 -36 5 3 38 -86 45 -121 5 -28 10 -40 15 -45 11 -10 38 -88 32 -94 -4 -3 -1
-6 6 -6 7 0 10 -4 7 -9 -4 -5 -1 -11 5 -13 6 -2 12 -15 12 -30 1 -14 5 -24 10
-21 4 2 10 -4 13 -14 3 -10 10 -27 16 -38 6 -11 26 -49 45 -85 19 -35 40 -71
48 -80 7 -8 15 -22 17 -30 2 -8 11 -23 21 -34 9 -11 17 -26 17 -33 0 -8 5 -11
11 -7 9 5 10 -2 6 -22 -3 -16 -4 -23 -1 -16 9 19 20 14 32 -12 10 -23 17 -33
64 -88 10 -11 15 -24 13 -29 -3 -4 0 -11 6 -15 8 -5 10 -2 4 7 -4 8 13 -8 38
-36 44 -48 60 -74 35 -59 -7 4 -8 3 -4 -5 4 -6 11 -9 15 -6 11 6 53 -30 44
-39 -3 -3 -1 -6 5 -6 7 0 40 -27 74 -60 33 -33 65 -60 70 -60 4 0 8 -5 8 -11
0 -5 -4 -7 -10 -4 -6 3 -7 -1 -3 -10 4 -13 8 -14 14 -4 6 10 14 8 36 -11 15
-14 30 -27 33 -31 3 -3 26 -20 52 -38 26 -19 45 -39 41 -45 -3 -6 -3 -8 2 -4
11 11 65 -23 66 -42 0 -10 2 -11 6 -2 3 9 13 6 36 -10 18 -13 45 -30 62 -39
16 -9 30 -21 30 -27 0 -6 4 -14 9 -19 5 -5 6 -3 2 4 -10 18 9 16 44 -5 16 -10
27 -22 23 -26 -4 -4 0 -4 10 0 10 3 17 1 17 -5 0 -6 3 -10 8 -10 19 3 33 -2
27 -10 -3 -5 0 -13 6 -17 8 -4 9 -3 5 4 -9 16 7 15 22 0 7 -7 12 -9 12 -5 0 4
16 -2 35 -13 20 -11 42 -20 50 -20 8 0 15 -5 15 -12 0 -6 3 -9 6 -5 8 8 64
-13 64 -25 0 -5 4 -7 9 -4 12 8 71 -14 71 -26 0 -5 9 -6 20 -3 11 3 20 3 20
-2 0 -5 8 -9 18 -9 9 -1 58 -11 107 -24 109 -27 115 -28 138 -29 12 -1 16 -5
11 -13 -6 -9 -3 -9 9 0 9 8 22 10 29 6 7 -5 24 -10 38 -11 86 -9 140 -13 260
-18 84 -5 138 -11 142 -18 5 -8 8 -7 8 3 0 12 15 15 73 15 39 -1 77 2 82 6 16
10 45 7 45 -5 0 -7 4 -6 8 2 11 17 105 27 97 9 -4 -6 -1 -5 7 3 7 8 24 17 38
19 33 4 55 9 55 11 0 1 9 3 20 5 23 4 102 23 129 31 14 5 16 3 10 -7 -4 -8 4
-4 19 8 16 12 37 20 47 18 11 -2 20 0 20 4 0 17 44 20 61 5 12 -10 19 -12 24
-4 3 6 1 9 -6 8 -6 -2 -13 2 -15 7 -4 11 85 49 94 41 2 -3 11 2 19 10 9 8 21
13 28 10 8 -3 16 2 19 11 4 9 14 13 26 10 11 -3 18 -1 14 4 -4 8 11 13 19 7 2
-2 12 5 21 15 18 17 19 17 40 0 11 -10 15 -11 9 -3 -18 19 -16 33 3 26 8 -3
13 -2 10 3 -7 11 49 32 60 23 4 -4 4 -2 0 5 -4 8 9 20 36 34 24 12 58 33 76
47 30 23 37 22 32 -3 -1 -5 2 -6 7 -2 4 5 9 13 9 18 1 5 2 14 3 19 0 6 8 10
16 10 8 0 15 5 15 12 0 6 3 9 6 6 3 -3 17 5 31 18 15 14 33 22 40 19 8 -2 12
-1 8 4 -8 14 56 60 74 54 12 -4 13 -3 3 4 -10 8 -5 16 20 36 18 14 51 41 72
61 21 19 43 33 49 29 6 -3 7 -1 4 4 -8 12 27 56 37 46 3 -3 6 -1 6 6 0 19 28
43 41 35 8 -4 9 -3 5 5 -8 12 28 64 38 54 3 -3 6 -1 6 6 0 7 5 9 12 5 7 -5 8
-3 3 5 -7 13 33 58 47 54 4 -2 5 4 2 12 -4 8 -1 15 5 15 6 0 11 5 11 11 0 16
51 75 62 71 5 -1 6 3 2 9 -4 7 0 17 8 23 8 6 17 18 21 26 4 8 16 29 27 45 11
17 23 37 27 45 23 50 71 119 78 112 5 -4 5 -2 1 5 -8 14 70 181 94 201 8 8 9
11 3 7 -14 -6 -18 7 -6 18 7 8 37 89 60 162 8 28 20 56 27 64 9 12 8 13 -4 6
-12 -7 -13 -6 -4 6 12 16 48 165 46 192 0 10 6 17 16 17 14 0 15 2 3 9 -12 8
-13 16 -3 47 6 20 9 41 6 46 -3 4 -2 8 3 8 4 0 8 17 9 38 2 64 13 277 15 282
1 3 0 10 -1 15 -1 6 -3 44 -5 85 -2 41 -6 104 -10 140 -4 36 -9 83 -11 105 -1
22 -3 40 -4 40 -2 0 -5 16 -14 60 -3 17 -10 45 -15 63 -5 17 -8 32 -6 32 3 0
0 11 -5 25 -5 14 -12 36 -14 48 -8 39 -15 61 -37 122 -11 33 -22 65 -23 70 -2
6 -8 23 -14 38 -7 16 -12 30 -12 33 0 7 -136 282 -158 319 -236 406 -634 758
-1078 953 -121 53 -322 121 -404 135 -14 3 -43 9 -65 15 -22 6 -62 14 -90 17
-27 4 -59 9 -70 10 -88 13 -151 18 -287 20 -87 1 -159 1 -160 0z"/>
<path d="M306 1778 c3 -5 10 -6 15 -3 13 9 11 12 -6 12 -8 0 -12 -4 -9 -9z"/>
<path d="M360 1660 c-9 -6 -10 -10 -3 -10 6 0 15 5 18 10 8 12 4 12 -15 0z"/>
<path d="M4314 920 c0 -13 4 -16 10 -10 7 7 7 13 0 20 -6 6 -10 3 -10 -10z"/>
<path d="M4270 919 c0 -5 5 -7 10 -4 6 3 10 8 10 11 0 2 -4 4 -10 4 -5 0 -10
-5 -10 -11z"/>
<path d="M4226 882 c-3 -5 1 -9 9 -9 8 0 12 4 9 9 -3 4 -7 8 -9 8 -2 0 -6 -4
-9 -8z"/>
<path d="M895 860 c3 -5 8 -10 11 -10 2 0 4 5 4 10 0 6 -5 10 -11 10 -5 0 -7
-4 -4 -10z"/>
<path d="M4187 839 c7 -7 15 -10 18 -7 3 3 -2 9 -12 12 -14 6 -15 5 -6 -5z"/>
<path d="M4136 795 c-9 -26 -7 -32 5 -12 6 10 9 21 6 23 -2 3 -7 -2 -11 -11z"/>
<path d="M975 780 c-3 -5 -1 -10 4 -10 6 0 11 5 11 10 0 6 -2 10 -4 10 -3 0
-8 -4 -11 -10z"/>
<path d="M1030 720 c0 -5 5 -10 11 -10 5 0 7 5 4 10 -3 6 -8 10 -11 10 -2 0
-4 -4 -4 -10z"/>
<path d="M1213 575 c0 -8 4 -12 9 -9 5 3 6 10 3 15 -9 13 -12 11 -12 -6z"/>
<path d="M3806 542 c-3 -5 1 -9 9 -9 8 0 12 4 9 9 -3 4 -7 8 -9 8 -2 0 -6 -4
-9 -8z"/>
<path d="M1335 500 c-3 -5 -1 -10 4 -10 6 0 11 5 11 10 0 6 -2 10 -4 10 -3 0
-8 -4 -11 -10z"/>
<path d="M3755 499 c-3 -4 2 -6 10 -5 21 3 28 13 10 13 -9 0 -18 -4 -20 -8z"/>
<path d="M3695 471 c-3 -5 -2 -12 3 -15 5 -3 9 1 9 9 0 17 -3 19 -12 6z"/>
<path d="M1410 466 c0 -2 7 -7 16 -10 8 -3 12 -2 9 4 -6 10 -25 14 -25 6z"/>
<path d="M1495 420 c3 -5 8 -10 11 -10 2 0 4 5 4 10 0 6 -5 10 -11 10 -5 0 -7
-4 -4 -10z"/>
<path d="M3513 395 c0 -8 4 -12 9 -9 5 3 6 10 3 15 -9 13 -12 11 -12 -6z"/>
<path d="M3590 381 c0 -6 4 -13 10 -16 6 -3 7 1 4 9 -7 18 -14 21 -14 7z"/>
<path d="M1653 345 c0 -8 4 -12 9 -9 5 3 6 10 3 15 -9 13 -12 11 -12 -6z"/>
<path d="M3387 339 c7 -7 15 -10 18 -7 3 3 -2 9 -12 12 -14 6 -15 5 -6 -5z"/>
<path d="M1756 313 c-6 -14 -5 -15 5 -6 7 7 10 15 7 18 -3 3 -9 -2 -12 -12z"/>
<path d="M1787 319 c7 -7 15 -10 18 -7 3 3 -2 9 -12 12 -14 6 -15 5 -6 -5z"/>
<path d="M1806 278 c3 -5 10 -6 15 -3 13 9 11 12 -6 12 -8 0 -12 -4 -9 -9z"/>
<path d="M1906 282 c-3 -5 1 -9 9 -9 8 0 12 4 9 9 -3 4 -7 8 -9 8 -2 0 -6 -4
-9 -8z"/>
<path d="M3215 271 c-3 -5 -2 -12 3 -15 5 -3 9 1 9 9 0 17 -3 19 -12 6z"/>
<path d="M3147 259 c7 -7 15 -10 18 -7 3 3 -2 9 -12 12 -14 6 -15 5 -6 -5z"/>
<path d="M2055 240 c3 -5 8 -10 11 -10 2 0 4 5 4 10 0 6 -5 10 -11 10 -5 0 -7
-4 -4 -10z"/>
<path d="M2115 199 c-3 -4 2 -6 10 -5 21 3 28 13 10 13 -9 0 -18 -4 -20 -8z"/>
<path d="M2710 201 c0 -6 4 -13 10 -16 6 -3 7 1 4 9 -7 18 -14 21 -14 7z"/>
<path d="M2935 200 c-3 -5 -1 -10 4 -10 6 0 11 5 11 10 0 6 -2 10 -4 10 -3 0
-8 -4 -11 -10z"/>
<path d="M2180 160 c-9 -6 -10 -10 -3 -10 6 0 15 5 18 10 8 12 4 12 -15 0z"/>
</g>
</svg>
